<?xml version="1.0" encoding="iso-8859-1"?>
<!-- Generator: Adobe Illustrator 19.0.0, SVG Export Plug-In . SVG Version: 6.00 Build 0)  -->
<svg version="1.1" id="Capa_1" xmlns="http://www.w3.org/2000/svg" xmlns:xlink="http://www.w3.org/1999/xlink" x="0px" y="0px"
	 viewBox="0 0 428 428" style="enable-background:new 0 0 428 428;" xml:space="preserve">
<path style="fill:#FDC75B;" d="M63.1,355.1v-70.9v-70.4v-70.4V72.5V41.1c0-17.3,14-31.3,31.3-31.3h272.8c17.3,0,31.3,14,31.3,31.3
	V387c0,17.3-14,31.3-31.3,31.3H94.4c-17.3,0-31.3-14-31.3-31.3V355.1z M333.4,297.7V75H150.3v222.8h183.1V297.7z"/>
<rect x="150.3" y="75" style="fill:#ED664C;" width="183.1" height="222.8"/>
<path d="M367.3,0H94.4C71.7,0,52.9,18.3,52.9,41.1V62H29.2c-5.5,0-10,4.5-10,10s4.5,10,10,10h23.7v51H29.2c-5.5,0-10,4.5-10,10
	s4.5,10,10,10h23.7v51H29.2c-5.5,0-10,4.5-10,10s4.5,10,10,10h23.7v50H29.2c-5.5,0-10,4.5-10,10s4.5,10,10,10h23.7v51H29.2
	c-5.5,0-10,4.5-10,10s4.5,10,10,10h23.7v21.9c0,22.8,18.8,41.1,41.5,41.1h272.8c22.8,0,41.6-18.3,41.6-41.1V41.1
	C408.9,18.3,390,0,367.3,0z M388.9,386.9c0,11.7-9.9,21.1-21.6,21.1H94.4c-11.7,0-21.5-9.3-21.5-21.1V365H96c5.5,0,10-4.5,10-10
	s-4.5-10-10-10H72.9v-51H96c5.5,0,10-4.5,10-10s-4.5-10-10-10H72.9v-50H96c5.5,0,10-4.5,10-10s-4.5-10-10-10H72.9v-51H96
	c5.5,0,10-4.5,10-10s-4.5-10-10-10H72.9V82H96c5.5,0,10-4.5,10-10s-4.5-10-10-10H72.9V41.1c0-11.7,9.8-21.1,21.5-21.1h272.8
	c11.7,0,21.6,9.3,21.6,21.1v345.8H388.9z"/>
<path d="M149.9,308h183c5.5,0,10-4.5,10-10V75c0-5.5-4.5-10-10-10h-183c-5.5,0-10,4.5-10,10v223C139.9,303.5,144.4,308,149.9,308z
	 M159.9,85h163v203h-163V85z"/>
<path d="M333.4,342H150.3c-5.5,0-10,4.5-10,10s4.5,10,10,10h183.1c5.5,0,10-4.5,10-10S338.9,342,333.4,342z"/>
<g>
</g>
<g>
</g>
<g>
</g>
<g>
</g>
<g>
</g>
<g>
</g>
<g>
</g>
<g>
</g>
<g>
</g>
<g>
</g>
<g>
</g>
<g>
</g>
<g>
</g>
<g>
</g>
<g>
</g>
</svg>
