<svg xmlns="http://www.w3.org/2000/svg" xmlns:xlink="http://www.w3.org/1999/xlink" width="638.661" height="514.42" viewBox="0 0 638.661 514.42">
  <defs>
    <filter id="Rectangle_2" x="223.33" y="0" width="237.491" height="338.884" filterUnits="userSpaceOnUse">
      <feOffset dx="7" dy="7" input="SourceAlpha"/>
      <feGaussianBlur stdDeviation="3" result="blur"/>
      <feFlood flood-opacity="0.4"/>
      <feComposite operator="in" in2="blur"/>
      <feComposite in="SourceGraphic"/>
    </filter>
    <filter id="Rectangle_3" x="282.734" y="446.217" width="174.586" height="56.953" filterUnits="userSpaceOnUse">
      <feOffset dx="7" dy="7" input="SourceAlpha"/>
      <feGaussianBlur stdDeviation="3" result="blur-2"/>
      <feFlood flood-opacity="0.4"/>
      <feComposite operator="in" in2="blur-2"/>
      <feComposite in="SourceGraphic"/>
    </filter>
    <filter id="Rectangle_4" x="179.023" y="335.882" width="213.768" height="98.234" filterUnits="userSpaceOnUse">
      <feOffset dx="7" dy="7" input="SourceAlpha"/>
      <feGaussianBlur stdDeviation="3" result="blur-3"/>
      <feFlood flood-opacity="0.4"/>
      <feComposite operator="in" in2="blur-3"/>
      <feComposite in="SourceGraphic"/>
    </filter>
    <clipPath id="clip-path">
      <circle id="Ellipse_1" data-name="Ellipse 1" cx="50.58" cy="50.58" r="50.58" fill="none"/>
    </clipPath>
    <clipPath id="clip-path-3">
      <circle id="Ellipse_5" data-name="Ellipse 5" cx="45.854" cy="45.854" r="45.854" transform="translate(0 86.016) rotate(-69.709)" fill="none"/>
    </clipPath>
  </defs>
  <g id="Group_12" data-name="Group 12" transform="translate(-137.771 -60.079)">
    <g id="Chat_Screen" data-name="Chat Screen" transform="translate(318.794 62.079)">
      <g transform="matrix(1, 0, 0, 1, -181.02, -2)" filter="url(#Rectangle_2)">
        <rect id="Rectangle_2-2" data-name="Rectangle 2" width="219.491" height="320.884" rx="61.61" transform="translate(225.33 2)" fill="#f8f8f8"/>
      </g>
      <path id="Path_1" data-name="Path 1" d="M403.945,103.819H596.529c2.33,0,4.219,2.429,4.219,5.426V294.162c0,3-1.889,5.426-4.22,5.426H403.944c-2.33,0-4.219-2.429-4.219-5.426V109.246C399.725,106.248,401.614,103.819,403.945,103.819Z" transform="translate(-345.883 -66.427)" fill="#2bbbe7" opacity="0.5"/>
      <g transform="matrix(1, 0, 0, 1, -181.02, -2)" filter="url(#Rectangle_3)">
        <rect id="Rectangle_3-2" data-name="Rectangle 3" width="156.586" height="38.953" rx="18.131" transform="translate(284.73 448.22)" fill="rgba(248,248,248,0.98)"/>
      </g>
      <text id="I_have_a_doubt_regarding_this_one_can_you_help_me_with_it_" data-name="I have a doubt regarding 
this one, can you help me
with it?" transform="translate(87.616 268.12)" font-size="14" font-family="Helvetica" opacity="0.8"><tspan x="0" y="0">I have a doubt regarding </tspan><tspan x="0" y="17">this one, can you help me</tspan><tspan x="0" y="34">with it?</tspan></text>
      <g transform="matrix(1, 0, 0, 1, -181.02, -2)" filter="url(#Rectangle_4)">
        <rect id="Rectangle_4-2" data-name="Rectangle 4" width="195.768" height="80.234" rx="29.095" transform="translate(181.02 337.88)" fill="rgba(248,248,248,0.98)"/>
      </g>
      <text id="Hello_I_am_Prateek_MirrorScore_Faculty._We_are_always_here_to_help_you._:_Let_s_get_Started_" data-name="Hello, I am Prateek,
MirrorScore Faculty. We are 
always here to help you. :)  
Let’s get Started!" transform="translate(21.355 359.058)" font-size="13" font-family="Helvetica" opacity="0.8"><tspan x="0" y="0">Hello, I am Prateek,</tspan><tspan x="0" y="16">MirrorScore Faculty. We are </tspan><tspan x="0" y="32" xml:space="preserve">always here to help you. :)  </tspan><tspan x="0" y="48">Let’s get Started!</tspan></text>
      <text id="Thank_You_so_much..." data-name="Thank You so much..." transform="translate(122.437 471.154)" font-size="14" font-family="Helvetica" opacity="0.8"><tspan x="0" y="0">Thank You so much...</tspan></text>
      <g id="Group_2" data-name="Group 2" transform="translate(61.999 47.154)" opacity="0.99">
        <g id="Group_1" data-name="Group 1">
          <path id="Path_2" data-name="Path 2" d="M408.831,204.817c6.7,0,12.545,0,18.391,0,23.763.006,47.527-.031,71.29.082,2.72.013,3.584-.557,3.57-3.457q-.187-37.892-.018-75.785c.009-2.491-.258-4.122-3.749-3.429l3.928-7.513c1.443,2.375,2.717,4.469,4.258,7.005-3.757-.158-3.8,1.926-3.794,4.549q.134,37.517,0,75.034c-.01,2.658.453,3.624,3.417,3.609,26.263-.13,52.527-.068,78.791-.095,1.447,0,3.416.734,3.411-2.039,0-1.3.978-.7,1.6-.394,1.674.83,3.329,1.7,5.561,2.849l-7.136,4.684c.873-4.424-1.483-4.388-4.358-4.378-25.763.083-51.527.129-77.289-.046-3.467-.024-4.022,1.029-4.009,4.176.121,28.263.071,56.528.071,84.792v4.066l-.764.011q0-9.515,0-19.029c0-23.513-.049-47.026.087-70.538.017-2.919-.882-3.453-3.582-3.444q-42.4.145-84.8.041C412.37,205.569,410.975,205.919,408.831,204.817Z" transform="translate(-408.831 -114.716)"/>
          <path id="Path_3" data-name="Path 3" d="M419.689,223.733c4.154-.928,8.3-.044,12.436.2a198.409,198.409,0,0,1,28.234,3.429C475.9,230.549,485,239.986,488.83,255.15c3.067,12.151,4.563,24.527,5.848,36.94.227,2.189,1.207,4.365.3,7.365-1.726-4.766-1.554-9.182-2.106-13.445-1.363-10.526-2.77-21.011-5.416-31.339C483.439,239,473.23,230.7,457.691,227.957,445.114,225.735,432.378,225.251,419.689,223.733Z" transform="translate(-409.962 -126.03)"/>
          <path id="Path_4" data-name="Path 4" d="M596.384,201.128c-3.793-.234-7.589-.425-11.379-.709-10.707-.8-21.406-1.551-31.891-4.2-13.075-3.311-21.219-11.443-25.05-24.267-4.427-14.825-5.605-30.16-7.4-45.4a8.275,8.275,0,0,1,.411-1.793c1.716,4.985,1.552,9.563,2.109,14,1.325,10.53,2.738,21.023,5.473,31.316,4.149,15.619,14.619,23.653,30.149,26.31,11.86,2.03,23.843,2.5,35.775,3.613.6.056,1.2.143,1.808.217Z" transform="translate(-420.481 -115.762)"/>
          <path id="Path_5" data-name="Path 5" d="M510,219.555c1,1.356.622,2.823.189,4.2a2.163,2.163,0,0,1-2.247,1.561,2.14,2.14,0,0,1-2.271-1.518c-.607-2.04-1.039-4.372.92-5.75,1.34-.943,3.174-.769,3.5,1.6-1.025-.429-1.83-2.195-3.125-.855-1.215,1.259-.967,2.961-.527,4.534.208.743.706,1.449,1.569,1.238,1.982-.485,1.535-2.2,1.674-3.608A10.889,10.889,0,0,1,510,219.555Z" transform="translate(-418.867 -125.426)"/>
          <path id="Path_6" data-name="Path 6" d="M567.62,195.726c-.458-2.321.528-3.394-.2-4.682-.544-.958-1.422-2.06-.83-3.854l1.815,3.615c.707-1.307,1.28-2.367,1.853-3.427l.558.236C569.877,189.991,568.942,192.366,567.62,195.726Z" transform="translate(-425.245 -122.266)"/>
          <path id="Path_7" data-name="Path 7" d="M502.007,130.107c.484-2.621-1.458-4.548-1.8-6.954,1.55.321.981,2.214,2.219,2.545,1.3-.469.675-2.389,2.535-2.875Z" transform="translate(-418.351 -115.561)"/>
        </g>
      </g>
    </g>
    <g id="Lines" transform="translate(252.96 238.918)">
      <line id="Line_1" data-name="Line 1" x2="59.46" transform="translate(340.615)" fill="#040405" stroke="#000" stroke-miterlimit="10" stroke-width="3"/>
      <line id="Line_2" data-name="Line 2" x1="59.46" transform="translate(0 201.125)" fill="#040405" stroke="#000" stroke-miterlimit="10" stroke-width="3"/>
      <line id="Line_3" data-name="Line 3" x2="59.46" transform="translate(338.563 288.854)" fill="#040405" stroke="#000" stroke-miterlimit="10" stroke-width="3"/>
    </g>
    <g id="Character_1" data-name="Character 1" transform="translate(661.338 186.709)">
      <g id="Group_5" data-name="Group 5">
        <g id="Group_4" data-name="Group 4" clip-path="url(#clip-path)">
          <g id="Group_3" data-name="Group 3" transform="translate(3.929 9.516)">
            <path id="Path_8" data-name="Path 8" d="M826.284,336.428c4.563-.031,9.127-.074,13.69-.086,1.1,0,2.137.327,2.105,1.643s-1.071,1.568-2.176,1.575c-.677,0-1.354.008-2.031.008q-53.8,0-107.6-.028c-1.449,0-3.835.787-3.886-1.541-.052-2.366,2.338-1.631,3.792-1.647,7.612-.082,15.225-.067,22.838-.086,3.692.624,7.414.1,11.116.285,1.8.088,2.227-.631,1.649-2.32a36.023,36.023,0,0,1-1.7-12.216c.047-3.975-.028-7.952-.049-11.928a50.22,50.22,0,0,1,11.948-4.01,14.507,14.507,0,0,0,5.187-1.886,11.542,11.542,0,0,0-8.465-21.03c-3.6.688-5.974,2.943-8.1,5.645.078-.659.124-1.325.237-1.978.754-4.305,3.182-7.833,5.355-11.478.315.116.64.213.944.354,5.687,2.61,10.984.683,13.634-4.992.253-.541.35-1.144,1.088-1.221,2.2.984,3.792,2.756,5.545,4.315a24.943,24.943,0,0,1,5.7,17.117c-.091,3.287.065,6.58.109,9.871l-.128,12.126c0,.336,0,.672,0,1.008-.073,7.019.851,14.156-2.765,20.726-.864,1.569.325,1.836,1.591,1.829q5.3-.027,10.593-.033l19.756-.019Z" transform="translate(-726.388 -217.833)" fill="#2bbbe7" opacity="0.4"/>
            <path id="Path_9" data-name="Path 9" d="M764.836,290.371c2.126-2.7,4.5-4.957,8.1-5.645a11.542,11.542,0,0,1,8.465,21.03,14.507,14.507,0,0,1-5.187,1.886,50.22,50.22,0,0,0-11.948,4.01,79.113,79.113,0,0,0-13.124,4.143c-3.263.462-6.248,1.863-9.362,2.816-5.344,1.637-9.5.471-11.921-3.6-2.33-3.924-1.382-8.279,2.6-11.94l.4-.489-.01.013,18.243-6.178c3.917-1.211,7.847-2.382,11.743-3.659A2.836,2.836,0,0,0,764.836,290.371Z" transform="translate(-726.619 -219.399)" fill="#fbb3b2"/>
            <path id="Path_10" data-name="Path 10" d="M758.49,237.31c-4.872-3.68-3.9-10.451.515-12.163a10.375,10.375,0,0,0,5.8-4.914,3.671,3.671,0,0,1,1.871-1.649c3.444-1.056,5.92-3.861,9.072-5.169a20.959,20.959,0,0,1,16.509.216c3.779,1.61,5.5,5.09,6.15,9.051a2.946,2.946,0,0,0,1.223,2.309c4.939,3.423,5.124,8,.595,12.174-2.593-2.974-4.965-3.02-7,.165-.759,1.185-1.569.486-2.325.739a7.313,7.313,0,0,0-7.467-2.4,45.861,45.861,0,0,0-8.388.045l-4.363-.058c-1.286-.811-2.051-.094-2.981.785-.86.813-1.864,2.419-3.3,1.088C762.389,235.667,760.5,236.117,758.49,237.31Z" transform="translate(-729.394 -211.826)" fill="#333"/>
            <path id="Path_11" data-name="Path 11" d="M758.727,240c2.013-1.193,3.9-1.643,5.905.219,1.435,1.331,2.439-.275,3.3-1.088.931-.879,1.7-1.6,2.981-.785-1.045.978-2.933,1.081-3.092,2.979l.011-.012a1.33,1.33,0,0,0-.911.787,6.381,6.381,0,0,0,2.274,8,6.316,6.316,0,0,0,8.523-1.659,6.188,6.188,0,0,0-.761-8.239c-.587-.577-1.458-.877-1.682-1.793a45.874,45.874,0,0,1,8.388-.045c-.565.5-1.109,1.021-1.7,1.488a6.248,6.248,0,0,0,3.226,11.14c3.086.206,5.212-.973,6.451-3.436,1.2-2.395.356-4.582-.511-6.793.755-.254,1.566.446,2.325-.739,2.039-3.185,4.41-3.139,7-.165a21.458,21.458,0,0,1,.334,5.241c.04,2.411-1.4,3.622-3.512,4.278-2.611-1.016-2.5,1.194-3.074,2.593l.016-.013-.369.426c-.779.991-1.374,2.249-2.367,2.925-4.29,2.922-2.726,7.005-2.381,10.869-.738.076-.836.679-1.088,1.22-2.651,5.676-7.948,7.6-13.634,4.992-.3-.141-.629-.237-.944-.356a11.286,11.286,0,0,1-4.026-6.686c1.53-6.465-3.255-9.833-6.783-13.815a2.312,2.312,0,0,0-.577-.478C757.439,248.447,756.373,244.913,758.727,240Zm20.564,13.883c1.524.114,2.443.352,3.572-.205C781.714,252.327,780.79,252.359,779.291,253.882Z" transform="translate(-729.631 -214.514)" fill="#fbb3b2"/>
            <path id="Path_12" data-name="Path 12" d="M814.368,339.365q-5.3.015-10.593.033c-1.266.006-2.455-.261-1.591-1.829,3.616-6.57,2.692-13.707,2.765-20.726,0-.336,0-.672,0-1.006,2.313-2.062,3.009-5.036,4.316-7.668.816-1.465,1.673-2.909,2.44-4.4,3.053-5.939,6.763-7.493,13.041-5.417l-.019-.017.707.492c4.443,3.845,5.185,7.542,2.523,12.779-4.273,8.406-8.577,16.8-12.829,25.213C814.74,337.6,813.917,338.31,814.368,339.365Z" transform="translate(-734.254 -220.749)" fill="#fbb3b2"/>
            <path id="Path_13" data-name="Path 13" d="M824.446,295.905c-6.278-2.076-9.988-.522-13.041,5.417-.767,1.49-1.624,2.934-2.441,4.4a14.459,14.459,0,0,0-4.188-4.459c-.044-3.291-.2-6.584-.109-9.871a24.943,24.943,0,0,0-5.7-17.117c2.92-.848,5.367.227,7.324,2.213,5.963,6.051,11.808,12.218,17.7,18.344C824.271,295.123,824.611,295.412,824.446,295.905Z" transform="translate(-733.949 -218.301)" fill="#333"/>
            <path id="Path_14" data-name="Path 14" d="M769.009,268.565a11.286,11.286,0,0,0,4.026,6.686c-2.173,3.647-4.6,7.175-5.355,11.48-.114.653-.159,1.319-.237,1.978a2.834,2.834,0,0,1-2,2.388c-3.9,1.277-7.826,2.448-11.743,3.659-.534-8.879,2.318-16.391,9.034-22.341A33.149,33.149,0,0,1,769.009,268.565Z" transform="translate(-729.226 -217.737)" fill="#2bbbe7" opacity="0.4"/>
            <path id="Path_15" data-name="Path 15" d="M760.616,272.8c-6.716,5.95-9.568,13.461-9.034,22.341l-18.243,6.178c2.142-4.018,5.124-7.455,7.72-11.158q5-7.134,10.158-14.156C753.733,272.592,757.256,271.466,760.616,272.8Z" transform="translate(-727.112 -218.121)" fill="#333"/>
            <path id="Path_16" data-name="Path 16" d="M798.474,253.3c.572-1.4.462-3.609,3.074-2.593C801.031,252.172,800.305,253.392,798.474,253.3Z" transform="translate(-733.898 -215.85)" fill="#333"/>
            <path id="Path_17" data-name="Path 17" d="M793.693,240.818c.866,2.211,1.715,4.4.511,6.793-1.239,2.464-3.365,3.642-6.451,3.436a6.248,6.248,0,0,1-3.226-11.14c.589-.467,1.133-.991,1.7-1.488A7.314,7.314,0,0,1,793.693,240.818Zm-5.216-1.016a5.06,5.06,0,0,0-5.321,5.182,5.443,5.443,0,0,0,5.327,5.043A5.128,5.128,0,0,0,793.735,245,4.96,4.96,0,0,0,788.476,239.8Z" transform="translate(-732.194 -214.575)" fill="#f2f2f2"/>
            <path id="Path_18" data-name="Path 18" d="M768.846,241.408c.159-1.9,2.047-2,3.092-2.979l4.363.058c.222.916,1.094,1.217,1.681,1.793a6.188,6.188,0,0,1,.761,8.239,6.316,6.316,0,0,1-8.523,1.659,6.381,6.381,0,0,1-2.274-8,1.33,1.33,0,0,1,.911-.787c-.155.734-.321,1.465-.464,2.2a4.878,4.878,0,0,0,2.35,5.619c2.075,1.223,4.226,1.34,6.089-.337,1.719-1.548,2.76-3.478,1.608-5.847a5.268,5.268,0,0,0-5.44-3.256C771.341,239.853,770.348,241.193,768.846,241.408Z" transform="translate(-730.656 -214.597)" fill="#f2f2f2"/>
            <path id="Path_19" data-name="Path 19" d="M781.823,255.635c1.5-1.523,2.423-1.554,3.572-.205C784.266,255.987,783.347,255.748,781.823,255.635Z" transform="translate(-732.163 -216.267)" fill="#f2f2f2"/>
            <path id="Path_20" data-name="Path 20" d="M788.6,239.987a4.96,4.96,0,0,1,5.258,5.2,5.128,5.128,0,0,1-5.252,5.027,5.443,5.443,0,0,1-5.327-5.043A5.06,5.06,0,0,1,788.6,239.987Zm1.32,4.62c.936.088,1.673.053,1.772-.818.077-.688-.508-1.012-1.127-1.12-1.156-.2-2.317-.375-3.478-.541-.715-.1-1.418-.038-1.512.857-.074.712.443,1.013,1.1,1.112C787.827,244.272,788.984,244.46,789.917,244.607Zm-.751,1.833c-.09-.482-.073-1.232-1.005-1.285-.8-.047-.957.528-.991,1.163-.037.694-.021,1.5.8,1.619S789.088,247.362,789.166,246.44Z" transform="translate(-732.314 -214.76)" fill="#faa6d6"/>
            <path id="Path_21" data-name="Path 21" d="M768.95,241.563c1.5-.215,2.495-1.554,4.153-1.633a5.268,5.268,0,0,1,5.44,3.256c1.152,2.369.111,4.3-1.608,5.847-1.862,1.677-4.014,1.56-6.089.337a4.878,4.878,0,0,1-2.35-5.619c.143-.735.309-1.466.464-2.2Zm2.531,2.426c1.163-.309,2.474-.621,3.76-1.017a.881.881,0,0,0,.649-1.177,1,1,0,0,0-1.21-.678c-1.311.309-2.618.638-3.906,1.028a.878.878,0,0,0-.648,1.177C770.315,243.845,770.76,244.087,771.481,243.989Zm1.986,1.118a1.342,1.342,0,0,0-.829,1.518c.035.761.367,1.438,1.184,1.312s.834-.937.8-1.636C774.587,245.659,774.412,245.13,773.467,245.107Z" transform="translate(-730.76 -214.753)" fill="#faa6d6"/>
            <path id="Path_22" data-name="Path 22" d="M790.183,244.852c-.933-.147-2.09-.335-3.25-.51-.653-.1-1.17-.4-1.1-1.112.094-.895.8-.959,1.512-.857,1.162.166,2.323.34,3.478.541.619.107,1.2.432,1.127,1.12C791.856,244.9,791.119,244.939,790.183,244.852Z" transform="translate(-732.581 -215.004)" fill="#333"/>
            <path id="Path_23" data-name="Path 23" d="M789.618,247.04c-.078.923-.362,1.62-1.191,1.5s-.841-.924-.8-1.619c.034-.635.2-1.209.991-1.163C789.545,245.808,789.527,246.558,789.618,247.04Z" transform="translate(-732.766 -215.36)" fill="#333"/>
            <path id="Path_24" data-name="Path 24" d="M771.679,244.124c-.72.1-1.165-.144-1.354-.667a.878.878,0,0,1,.648-1.177c1.287-.391,2.6-.719,3.906-1.028a1,1,0,0,1,1.21.678.881.881,0,0,1-.649,1.177C774.154,243.5,772.842,243.815,771.679,244.124Z" transform="translate(-730.959 -214.888)" fill="#333"/>
            <path id="Path_25" data-name="Path 25" d="M773.964,245.71c.945.023,1.121.552,1.154,1.194.036.7.026,1.51-.8,1.636s-1.149-.552-1.184-1.312A1.342,1.342,0,0,1,773.964,245.71Z" transform="translate(-731.258 -215.356)" fill="#333"/>
          </g>
        </g>
      </g>
      <g id="Group_9" data-name="Group 9" transform="translate(8.938 277.405)">
        <g id="Group_8" data-name="Group 8" clip-path="url(#clip-path)">
          <g id="Group_7" data-name="Group 7" transform="translate(2.983 20.589)">
            <g id="Group_6" data-name="Group 6">
              <path id="Path_26" data-name="Path 26" d="M798.9,592.9c-.03,6.936-.131,13.874-.064,20.81.036,3.747-.336,7.363-2.1,10.727-.78,1.493.383,1.209,1.112,1.209,5.564,0,11.129-.033,16.693-.055.25,0,.5-.014.75,0,1.008.075,2.47-.309,2.493,1.217.024,1.594-1.471,1.2-2.454,1.2q-35.923.028-71.845.013c-2.333,0-2.619-.275-2.092-1.867a.429.429,0,0,0,.26-.235,1.956,1.956,0,0,1,.671-.281c8.089-.021,16.179-.19,24.266.075,2.807.025,5.616.041,8.423.079.958.013,1.215-.3.821-1.241a17.734,17.734,0,0,1-1.13-7.134q.1-12.643,0-25.289a16.423,16.423,0,0,1,1.715-7.206c.714-1.513,1.621-2.936,2.442-4.4,5.475,2.172,8.3,1.182,11.1-3.865.11-.2.37-.314.56-.469a15.5,15.5,0,0,1,3.389,2.453,19.028,19.028,0,0,1,3.719,5.788C798.767,587.166,798.788,590.036,798.9,592.9Z" transform="translate(-735.921 -538.263)" fill="#2bbbe7" opacity="0.4"/>
              <path id="Path_27" data-name="Path 27" d="M759.536,606.236c-1.278,2.989-3.437,4.779-6.792,4.593-3.277-.182-5.14-2.236-6.212-5.169q-4.273-11.7-8.562-23.391a20.113,20.113,0,0,0-1.515-3.208,8.391,8.391,0,0,1,1.618-10.443,8.622,8.622,0,0,1,10.568-.815,8.283,8.283,0,0,1,3.205,10.058,4.382,4.382,0,0,0-.035,3.567c1.065,2.665,2.079,5.35,3.114,8.025,1.4,3.9,2.765,7.815,4.211,11.7A7.937,7.937,0,0,1,759.536,606.236Z" transform="translate(-735.309 -537.239)" fill="#fbb3b2"/>
              <path id="Path_28" data-name="Path 28" d="M824.337,580.873c1.963-5.264,3.913-10.531,5.9-15.785a2.9,2.9,0,0,0-.234-2.317,8.545,8.545,0,1,1,15.942-6.124,7.693,7.693,0,0,1-.312,6.207c-2.615,4.936-4.066,10.323-6.092,15.485-1.5,3.834-2.825,7.74-4.3,11.586-1.8,4.7-4.183,5.977-9.158,5.032-4.008-2.411-4.964-5.151-3.35-9.544C823.29,583.907,823.8,582.387,824.337,580.873Z" transform="translate(-744.34 -535.624)" fill="#fbb3b2"/>
              <path id="Path_29" data-name="Path 29" d="M781.6,580.465c-.821,1.462-1.728,2.885-2.442,4.4a16.424,16.424,0,0,0-1.715,7.206q.083,12.645,0,25.289a17.732,17.732,0,0,0,1.13,7.134c.394.941.138,1.253-.821,1.241-2.807-.038-5.616-.054-8.423-.079.412-.517.064-.936-.192-1.349a12.658,12.658,0,0,1-1.674-6.8q-.064-8.22-.147-16.436c.008-2.3.081-4.6.012-6.9a19.878,19.878,0,0,1,6.495-15.663c1.617-1.015,3.064-2.309,4.894-2.974C778.922,577.62,780.289,579.025,781.6,580.465Z" transform="translate(-738.643 -538.194)" fill="#2bbbe7" opacity="0.4"/>
              <path id="Path_30" data-name="Path 30" d="M770.066,551.69c-2.814-3.9-1.545-7.756,2.984-8.9a1.936,1.936,0,0,0,1.449-1.238,6.489,6.489,0,0,1,4.9-3.942,3.464,3.464,0,0,0,1.853-1.164,8.1,8.1,0,0,1,6.205-2.587c1.56.04,3.123.03,4.683.073a8.421,8.421,0,0,1,8.239,7.294,3.069,3.069,0,0,0,1.563,2.489,4.688,4.688,0,0,1,2.169,4.851c-.241,1.685-.848,3.288-2.835,3.743-1.921-2.5-3.815-2.432-5.413.2a.883.883,0,0,1-.7.52c-1.617-1.284-3.274-2.445-5.52-1.8a36.643,36.643,0,0,0-6.539.039c-.812-.028-1.624-.048-2.436-.084-1.129-.05-2.369-.486-3.058.918-.808.167-1.449,1.7-2.43.389C773.426,550.158,772.454,549.979,770.066,551.69Z" transform="translate(-738.775 -533.851)" fill="#333"/>
              <path id="Path_31" data-name="Path 31" d="M783.207,553.2a36.643,36.643,0,0,1,6.539-.039c-.386.309-.767.624-1.158.925a4.844,4.844,0,0,0-1.693,5.691c.685,1.794,2.407,2.8,4.686,2.739,2.12-.057,3.521-1.329,4.262-3.569.493-1.486-.283-2.678-.577-3.99a.883.883,0,0,0,.7-.52c1.6-2.635,3.493-2.7,5.413-.2.111,2.345,1.151,4.915-1.589,6.571-1.484-.075-2.163.794-2.464,2.1a11.59,11.59,0,0,1-2.1,2.793c-3.1,2.2-2,5.17-1.725,8.015-.19.155-.45.271-.56.469-2.8,5.048-5.627,6.037-11.1,3.865-1.308-1.439-2.675-2.844-2.887-4.926,0-.56-.032-1.123.012-1.68.176-2.206-.138-4.128-2.259-5.457a7.805,7.805,0,0,1-2.339-3.1c-.319-1.157-.575-2.389-2.272-1.9-2.132-1.048-2.914-3-2.353-5.958a12.654,12.654,0,0,1,.436-1.414c2.388-1.711,3.36-1.532,5.114.8.982,1.308,1.622-.221,2.429-.387.131,1.071-.644,1.864-.872,2.832a4.827,4.827,0,0,0,1.888,4.979,4.318,4.318,0,0,0,4.474.383,4.489,4.489,0,0,0,2.815-4.057C786.229,555.76,784.522,554.642,783.207,553.2Zm6.241,10.164c-1.6.481-3.1.193-4.715.373C786.569,565.106,787.693,565.016,789.448,563.369Zm-3.917,2.742a2.6,2.6,0,0,0,3.169-.069A7.615,7.615,0,0,0,785.531,566.111Z" transform="translate(-738.877 -535.785)" fill="#fbb3b2"/>
              <path id="Path_32" data-name="Path 32" d="M822.052,583.769c-.532,1.514-1.047,3.034-1.6,4.54-1.613,4.393-.658,7.133,3.35,9.544-3.391-.469-6.609-1.647-9.923-2.43-2.96-.7-5.895-1.505-8.84-2.265-.116-2.867-.138-5.736-1.26-8.464a19.028,19.028,0,0,0-3.719-5.788c1.98-.633,3.824.09,5.688.577Q813.9,581.617,822.052,583.769Z" transform="translate(-742.055 -538.519)" fill="#333"/>
              <path id="Path_33" data-name="Path 33" d="M772.763,578.743a19.878,19.878,0,0,0-6.495,15.663c.069,2.3,0,4.6-.012,6.9q-2.22,3.057-4.44,6.118a7.939,7.939,0,0,0-.4-5.086c-1.447-3.883-2.813-7.8-4.211-11.7,2.473-3.043,4.514-6.391,6.693-9.639C765.617,578.437,769.863,576.49,772.763,578.743Z" transform="translate(-737.59 -538.425)" fill="#333"/>
              <path id="Path_34" data-name="Path 34" d="M800.549,563.888c.3-1.31.98-2.179,2.464-2.1A2.3,2.3,0,0,1,800.549,563.888Z" transform="translate(-742.106 -536.761)" fill="#333"/>
              <path id="Path_35" data-name="Path 35" d="M772.379,561.98c1.7-.491,1.953.741,2.272,1.9A2.846,2.846,0,0,1,772.379,561.98Z" transform="translate(-739.171 -536.77)" fill="#333"/>
              <path id="Path_36" data-name="Path 36" d="M784.038,553.275c1.315,1.437,3.023,2.555,2.809,4.972a4.489,4.489,0,0,1-2.815,4.057,4.318,4.318,0,0,1-4.474-.383,4.827,4.827,0,0,1-1.888-4.979c.228-.968,1-1.76.872-2.832.691-1.406,1.931-.97,3.059-.92C782.414,553.227,783.226,553.247,784.038,553.275Zm-1.776.994a4.112,4.112,0,0,0-4.09,3.794,4.2,4.2,0,0,0,3.978,3.763,3.97,3.97,0,0,0,3.881-3.776A3.65,3.65,0,0,0,782.262,554.27Z" transform="translate(-739.708 -535.856)" fill="#f2f2f2"/>
              <path id="Path_37" data-name="Path 37" d="M797.243,555.028c.294,1.312,1.07,2.5.577,3.99-.742,2.24-2.143,3.512-4.262,3.569-2.279.062-4-.944-4.686-2.739a4.844,4.844,0,0,1,1.693-5.691c.391-.3.772-.616,1.158-.925C793.968,552.583,795.626,553.744,797.243,555.028Zm-.993,3.43c-.108-1.261-1.09-1.916-.953-2.571.48-2.285-1.326-1.631-2.252-1.769a3.216,3.216,0,0,0-2.21.865,3.8,3.8,0,0,0-.667,5.328,4,4,0,0,0,5.189.947,3.721,3.721,0,0,0,.908-5.257A3.31,3.31,0,0,1,796.249,558.458Z" transform="translate(-740.855 -535.851)" fill="#f2f2f2"/>
              <path id="Path_38" data-name="Path 38" d="M791.213,564.643c-1.755,1.647-2.879,1.737-4.715.373C788.11,564.836,789.616,565.124,791.213,564.643Z" transform="translate(-740.642 -537.059)" fill="#f2f2f2"/>
              <path id="Path_39" data-name="Path 39" d="M787.389,567.68a7.615,7.615,0,0,1,3.169-.069A2.6,2.6,0,0,1,787.389,567.68Z" transform="translate(-740.735 -537.354)" fill="#f2f2f2"/>
              <path id="Path_40" data-name="Path 40" d="M782.336,554.407a3.65,3.65,0,0,1,3.769,3.781,3.97,3.97,0,0,1-3.881,3.776,4.2,4.2,0,0,1-3.978-3.763A4.112,4.112,0,0,1,782.336,554.407Zm.755,4.132c-.014-.541-.193-1.033-.813-.973-.6.058-.689.589-.674,1.113.015.546.177,1.026.811.969S783.1,559.055,783.091,558.539Z" transform="translate(-739.782 -535.993)" fill="#faa6d6"/>
              <path id="Path_41" data-name="Path 41" d="M796.346,558.58a3.31,3.31,0,0,0,.014-2.456,3.721,3.721,0,0,1-.908,5.257,4,4,0,0,1-5.189-.947,3.8,3.8,0,0,1,.667-5.328,3.216,3.216,0,0,1,2.21-.865c.926.138,2.732-.516,2.252,1.769C795.256,556.664,796.238,557.319,796.346,558.58Zm-3.311-1.079a.929.929,0,0,0-.741,1.035c-.005.509.073,1.047.69,1.1.662.059.754-.477.772-.991S793.718,557.66,793.035,557.5Z" transform="translate(-740.952 -535.974)" fill="#faa6d6"/>
            </g>
            <path id="Path_42" data-name="Path 42" d="M783.4,558.9c.007.514-.046,1.053-.675,1.109s-.8-.424-.811-.969c-.014-.525.073-1.055.675-1.114C783.205,557.865,783.385,558.356,783.4,558.9Z" transform="translate(-740.164 -536.359)" fill="#333"/>
            <path id="Path_43" data-name="Path 43" d="M793.281,557.873c.683.159.738.639.721,1.148s-.11,1.05-.772.991c-.618-.056-.7-.594-.69-1.1A.93.93,0,0,1,793.281,557.873Z" transform="translate(-741.272 -536.354)" fill="#333"/>
          </g>
        </g>
      </g>
    </g>
    <g id="Circle_Clipper" data-name="Circle Clipper" transform="translate(139.698 158.719)">
      <g id="Group_11" data-name="Group 11" transform="translate(0 220.449)">
        <g id="Group_10" data-name="Group 10" clip-path="url(#clip-path-3)">
          <path id="Path_44" data-name="Path 44" d="M175.434,731.569c-1.38.865-2.956,1.353-4.38,2.114a6,6,0,0,0-3.214,3.482,2.194,2.194,0,0,0,.072,1.489,2.888,2.888,0,0,0,1.533,1.216,23.26,23.26,0,0,0,18.4.208,24.211,24.211,0,0,1,3.176-1.259,20.619,20.619,0,0,1,4.068-.417,31.366,31.366,0,0,0,4.276-.547,3.759,3.759,0,0,0,1.939-.805,3.6,3.6,0,0,0,.871-2.091,17.221,17.221,0,0,0-2.738-12.2,4.122,4.122,0,0,0-1.193-1.264,4.616,4.616,0,0,0-1.9-.51c-2.738-.334-5.607-.947-8.371-1.013-1.982-.043-2.979.9-4.381,2.262C180.7,725.131,179,729.341,175.434,731.569Z" transform="translate(-142.62 -447.707)" fill="#323444"/>
          <path id="Path_45" data-name="Path 45" d="M221.329,731.134c0,2.683.323,5.525,1.949,7.666a10.123,10.123,0,0,0,2.661,2.326c3.438,2.19,7.993,3,11.618,1.14A3.456,3.456,0,0,0,239,741.05a4.144,4.144,0,0,0-.049-3.192l-5.245-18.178c-3.389.521-8.371.887-11.383,2.606C220.142,723.529,221.329,728.736,221.329,731.134Z" transform="translate(-148.169 -447.676)" fill="#323444"/>
          <path id="Path_46" data-name="Path 46" d="M172.582,606.946c-.318,1-1.467,1.467-2.1,2.31a4.385,4.385,0,0,0-.394,3.57,9.438,9.438,0,0,0,2.4,4.736,5.677,5.677,0,0,0,4.928,1.675,4.106,4.106,0,0,0,3.345-3.684,6.961,6.961,0,0,0-.515-2.371l-3.734-10.8a.408.408,0,0,0-.674-.3c-.881.416-2.65.854-3.164,1.768S172.954,605.956,172.582,606.946Z" transform="translate(-142.844 -435.417)" fill="#fbb3b2"/>
          <path id="Path_47" data-name="Path 47" d="M170.944,605.876a17.671,17.671,0,0,0,3.832-1.539c1.276-.525,2.875-.727,3.948.149.306.252.6.6,1,.591a39.115,39.115,0,0,0-2.453-7.8.607.607,0,0,0-.213-.3.622.622,0,0,0-.465,0l-3.685.964c-1.363.356-1.522.246-1.418,1.587C171.519,600.127,171.825,605.876,170.944,605.876Z" transform="translate(-142.953 -434.889)" fill="#323444"/>
          <path id="Path_48" data-name="Path 48" d="M170.236,519.858a5.19,5.19,0,0,0-.547,2.885,98.173,98.173,0,0,0,.766,14.514c.17,1.15.383,2.3.493,3.461a39.928,39.928,0,0,1,.077,4.856l-.547,21.08c-.066,2.579-.2,5.349-1.791,7.375a3.523,3.523,0,0,0-.641,2.337c.417,5.29,1.292,10.535,2.163,15.764a9.74,9.74,0,0,1,8.837.421,97.277,97.277,0,0,0,4.539-26.828c.125-4.484-.066-9,.624-13.425,1.156-7.458.684-15.106-.164-22.607a12.491,12.491,0,0,0-2.36-6.664,10.11,10.11,0,0,0-5.475-3.153C174.183,519.343,172.371,519.89,170.236,519.858Z" transform="translate(-142.65 -426.837)" fill="#5b5583"/>
          <path id="Path_49" data-name="Path 49" d="M170.236,519.858a5.19,5.19,0,0,0-.547,2.885,98.173,98.173,0,0,0,.766,14.514c.17,1.15.383,2.3.493,3.461a39.928,39.928,0,0,1,.077,4.856l-.547,21.08c-.066,2.579-.2,5.349-1.791,7.375a3.523,3.523,0,0,0-.641,2.337c.417,5.29,1.292,10.535,2.163,15.764a9.74,9.74,0,0,1,8.837.421,97.277,97.277,0,0,0,4.539-26.828c.125-4.484-.066-9,.624-13.425,1.156-7.458.684-15.106-.164-22.607a12.491,12.491,0,0,0-2.36-6.664,10.11,10.11,0,0,0-5.475-3.153C174.183,519.343,172.371,519.89,170.236,519.858Z" transform="translate(-142.65 -426.837)" opacity="0.1" style="isolation: isolate"/>
          <path id="Path_50" data-name="Path 50" d="M177.752,587.264a96.7,96.7,0,0,0,5.76,55.978,15.165,15.165,0,0,1,1.336,4.139c.3,2.683-.936,5.262-1.642,7.857-1.643,5.9-.7,12.188.356,18.226q.657,3.779,1.353,7.551c.454,2.453.892,5.119-.246,7.342.98,4.084,1.561,8.13,2.541,12.215a2.317,2.317,0,0,1,.092,1,2.948,2.948,0,0,1-1,1.341,5.99,5.99,0,0,0-1.527,5.732c2.5-1.8,5.989-1.166,8.848,0s5.671,2.738,8.76,2.738c-.45-3.624-.881-7.43.454-10.83.778-1.971,2.146-3.832,2.108-5.941-.039-1.888-1.193-3.575-1.473-5.442a13.737,13.737,0,0,1,.132-3.482c.734-6.7-.1-13.469-.931-20.16a12.062,12.062,0,0,0-.92-3.832,5.663,5.663,0,0,1-.959-2.426c0-1.024.827-1.856,1.133-2.831.548-1.8-.46-4.237,1.057-5.349,4-2.935,2.464-9.943,2.376-14.9q-.1-6.412-.547-12.812a54.571,54.571,0,0,1,3.023,22.086c-.176,2.453-.5,5.032.46,7.3.734,1.741,2.19,3.176,2.584,5.021a21,21,0,0,1,.126,3.477,3.583,3.583,0,0,0,1.45,3.012c.077,5.277.548,10.923.63,16.2a40,40,0,0,0,.658,8.048,10.268,10.268,0,0,1,.4,2.6,10.851,10.851,0,0,1-.865,3.192,18.306,18.306,0,0,0,2.738,16.891,8.167,8.167,0,0,1,6.614-3.7,23.98,23.98,0,0,1,7.769,1.139,15.219,15.219,0,0,1,1.818-9.253,7.579,7.579,0,0,0,.959-2.059c.3-1.39-.394-2.776-.767-4.15a20.873,20.873,0,0,1-.252-6.839,108.22,108.22,0,0,0-1.013-22.951,19.426,19.426,0,0,0-1.045-4.381c-.2-.5-.438-.985-.6-1.5a11.735,11.735,0,0,1-.438-2.8l-.63-8.76c-.443-6.137,1.571-12.2,2.979-18.188.63-2.683,1.314-5.361,1.735-8.087.575-3.712.668-7.506,1.511-11.169.756-3.285,2.12-6.488,2.4-9.855.438-5.218-1.73-10.261-3.832-15.046-.876-1.971-4.189-1.774-6.318-2.124-15.106-2.481-31.017-2.5-45.263,3.093A11.256,11.256,0,0,0,177.752,587.264Z" transform="translate(-143.476 -433.113)" fill="#3c354c"/>
          <path id="Path_51" data-name="Path 51" d="M189.858,479.117l1.675,6.515a17.419,17.419,0,0,1,.751,4.6,3.4,3.4,0,0,1-.367,1.643,3.926,3.926,0,0,1-1.04,1.062c-1.145.87-1.939,2.9-3.246,3.5.673,1.172,1.6.411,2.819,1,2.141,1.04,4.1,2.534,6.422,3.049a14.337,14.337,0,0,0,6.664-.547,23.012,23.012,0,0,0,8.629-4.013c2.481-2.021,3.892-3.805,3.882-7-2.738.322-5.174-2.442-6.384-4.928a13.362,13.362,0,0,1-.92-2.951l-1.467-6.455c-1.6.35-2.9,1.494-4.43,2.092a16.069,16.069,0,0,1-5.031.727,54.227,54.227,0,0,0-8.957,1.161c-.406.082-.915.34-.816.734" transform="translate(-144.692 -422.144)" fill="#fbb3b2"/>
          <path id="Path_52" data-name="Path 52" d="M189.858,479.117l1.675,6.515a17.419,17.419,0,0,1,.751,4.6,3.4,3.4,0,0,1-.367,1.643,3.926,3.926,0,0,1-1.04,1.062c-1.145.87-1.939,2.9-3.246,3.5.673,1.172,1.6.411,2.819,1,2.141,1.04,4.1,2.534,6.422,3.049a14.337,14.337,0,0,0,6.664-.547,23.012,23.012,0,0,0,8.629-4.013c2.481-2.021,3.892-3.805,3.882-7-2.738.322-5.174-2.442-6.384-4.928a13.362,13.362,0,0,1-.92-2.951l-1.467-6.455c-1.6.35-2.9,1.494-4.43,2.092a16.069,16.069,0,0,1-5.031.727,54.227,54.227,0,0,0-8.957,1.161c-.406.082-.915.34-.816.734" transform="translate(-144.692 -422.144)" opacity="0.1" style="isolation: isolate"/>
          <circle id="Ellipse_3" data-name="Ellipse 3" cx="14.498" cy="14.498" r="14.498" transform="matrix(0.116, -0.993, 0.993, 0.116, 36.282, 58.789)" fill="#fbb3b2"/>
          <path id="Path_53" data-name="Path 53" d="M200.646,492.949a13.128,13.128,0,0,1,3.285-4.381c2.042-1.791,4.835-3.241,5.316-5.913l4.424,5.153a2.372,2.372,0,0,1,.547.843,2.123,2.123,0,0,1-.417,1.7,17.739,17.739,0,0,1-4.45,4.26,135.062,135.062,0,0,0-10.727,9.461,1.1,1.1,0,0,1-.574.35,1.038,1.038,0,0,1-.6-.169,24.918,24.918,0,0,1-7.649-6.22c-.159-.192-.356-.411-.613-.4a.788.788,0,0,0-.411.214c-1.473,1.2-3.083,2.644-4.971,2.458a11.773,11.773,0,0,0,4.347-7.666,14.558,14.558,0,0,1,.624-2.995,3.126,3.126,0,0,1,2.136-2.025c-1.194,1.823-.378,4.407,1.226,5.88a12.094,12.094,0,0,0,5.431,2.634C199.436,496.491,199.983,494.383,200.646,492.949Z" transform="translate(-144.294 -422.983)" fill="#323444"/>
          <path id="Path_54" data-name="Path 54" d="M180.755,588.554c2.064.51,4.019,1.374,6.023,2.015a28.786,28.786,0,0,0,11.306,1.189,6.1,6.1,0,0,0,3.285-1.046c.258-.208.493-.454.767-.646a5.347,5.347,0,0,1,1.473-.607c5.021-1.571,9.226-4.961,13.3-8.278.132-.11.28-.246.268-.422a.544.544,0,0,0-.164-.312l-2.146-2.464c-5.628.958-11.394.6-17.1.455a24.759,24.759,0,0,0-3.515.092c-1.128.132-2.24.417-3.351.658-4.221.92-8.535,1.27-12.811,1.872a1.99,1.99,0,0,0-.849.262,1.922,1.922,0,0,0-.454.5l-1.5,2.108a6.625,6.625,0,0,0-1.259,2.414c-.351,1.643.383,2.19,1.779,1.977A12.989,12.989,0,0,1,180.755,588.554Z" transform="translate(-143.265 -432.914)" fill="#323444"/>
          <path id="Path_55" data-name="Path 55" d="M197.085,502.171a26.665,26.665,0,0,0-5.645-4.407,8,8,0,0,0-2.738-1.1,3.418,3.418,0,0,0-2.8.69c-.487.433-.795,1.036-1.265,1.49a6.3,6.3,0,0,1-2,1.133,35.55,35.55,0,0,0-7.041,4.013,16.176,16.176,0,0,0-3.192,2.945c-2.481,3.176-2.853,7.5-2.787,11.526.049,2.8,2.738,4.883,4.587,6.98a51.4,51.4,0,0,1,4.7,6.571c1,1.577,2.037,3.285,1.911,5.163-.1,1.538-1,2.984-.859,4.517.049.548.224,1.052.273,1.583a17.679,17.679,0,0,1-.443,3.285c-.148,1.549.357,3.088.383,4.648a14.777,14.777,0,0,1-.4,3.17c-1.051,5-2.37,10.036-2.1,15.144l-3.033.547a2.563,2.563,0,0,1-.586,4.09c4.736,1.582,9.855.783,14.876.778,4.156,0,8.3.547,12.445.47s8.432-.827,11.854-3.176c.931-.635,1.784-1.38,2.764-1.932a13.634,13.634,0,0,1,4.189-1.369,41.548,41.548,0,0,1,8.212-.734c1.347,0,2.815.055,3.888-.755,1.182-.9,1.483-2.524,1.642-4,.159-1.555.258-3.116.285-4.676a20.061,20.061,0,0,0-.192-3.635,23.671,23.671,0,0,0-.641-2.606l-2.064-7.271c-.854-3,.334-6.29.586-9.4a2.357,2.357,0,0,0-.493-2.059c-.2-.169-.482-.285-.547-.547a.932.932,0,0,1,.132-.734,40.5,40.5,0,0,1,4.237-6.1,124.5,124.5,0,0,0,7.008-10.77,34.652,34.652,0,0,0-9.274-20.74,10.039,10.039,0,0,0-3.882-2.863,11.46,11.46,0,0,0-3.088-.5c-4.292-.29-8.76-.548-12.5-2.705a2.378,2.378,0,0,0-.892-.377c-.827-.093-1.429.722-1.965,1.369-1.38,1.642-3.411,2.584-5.2,3.794A36.831,36.831,0,0,0,197.085,502.171Z" transform="translate(-142.814 -423.588)" fill="#2bbbe7"/>
          <path id="Path_56" data-name="Path 56" d="M248.594,520.587c.854,2.7.772,5.6,1.051,8.415a32.753,32.753,0,0,0,.893,5.043,8.035,8.035,0,0,0,1.04,2.567,11.328,11.328,0,0,1,1.511,2.125,5.131,5.131,0,0,1,.224,1.708l.066,3.778a13.582,13.582,0,0,1-.893,5.88l-2.36,7.178c-1.276,3.887-2.584,7.835-4.884,11.218a3.234,3.234,0,0,1-1.406,1.32,6.794,6.794,0,0,1-1.418.219,3.648,3.648,0,0,0-3.006,3.543,8.3,8.3,0,0,0-2.02-2.064l-4.8-3.833a20.553,20.553,0,0,0-5.349-3.466,14.5,14.5,0,0,0,10.085-12.188,5.478,5.478,0,0,1,.547-2.4c.4-.646,1.139-1.139,1.193-1.9.066-.958-1.019-1.681-1.019-2.639,0-.635.471-1.161.679-1.758a4.415,4.415,0,0,0,0-2.25l-.662-3.679a2.807,2.807,0,0,0-.329-1.052,6.829,6.829,0,0,0-.821-.865c-1.139-1.276-.635-3.285,0-4.856a46.393,46.393,0,0,1,5.6-9.816,33.769,33.769,0,0,0,2.228-3.186c.58-1.008.712-2.4,1.325-3.286C246.852,516.415,247.92,518.457,248.594,520.587Z" transform="translate(-148.818 -426.285)" fill="#5b5583"/>
          <path id="Path_57" data-name="Path 57" d="M226.69,570.211a2.657,2.657,0,0,0-.624.658,5.534,5.534,0,0,1-2.48,1.768c.547.394,1.045.783,1.56,1.182a68.363,68.363,0,0,1,10.4,9.948c.345-1.232,2.409-1.144,2.913-2.321a2.278,2.278,0,0,0,.109-1.052,32.071,32.071,0,0,0-.788-5.475,6.187,6.187,0,0,0-1.1-2.562,6.569,6.569,0,0,0-3.1-1.752C231.864,570,228.442,569.154,226.69,570.211Z" transform="translate(-148.437 -432.053)" fill="#323444"/>
          <path id="Path_58" data-name="Path 58" d="M218.381,574.869c-1.642,1.216-3.083,2.738-4.927,3.57-1.3.591-2.787.848-3.926,1.73a3.9,3.9,0,0,0,3.723,2.015,8.846,8.846,0,0,0,4.167-1.527c.98-.6,2.129-1.3,3.2-.882.164.832-.547,1.615-.547,2.459a2.477,2.477,0,0,0,1.39,1.9c3.285,2.12,7.512,1.944,11.427,1.7a1.031,1.031,0,0,0,.629-.186.988.988,0,0,0,.236-.723c.049-.865.072-1.724.077-2.59a3.711,3.711,0,0,0-1.588-3.657,44.623,44.623,0,0,0-6.843-4.845C222.986,572.433,220.544,573.26,218.381,574.869Z" transform="translate(-146.973 -432.408)" fill="#fbb3b2"/>
          <path id="Path_59" data-name="Path 59" d="M203.37,460.7c-2.431.29-4.2,2.19-3.953,4.254s2.415,3.488,4.845,3.193,4.2-2.19,3.953-4.249S205.8,460.406,203.37,460.7Zm.827,6.877a3.219,3.219,0,1,1,3.345-3.6,3.505,3.505,0,0,1-3.345,3.6Z" transform="translate(-145.917 -420.692)" fill="#3c354c"/>
          <path id="Path_60" data-name="Path 60" d="M190.144,462.286c-2.431.29-4.2,2.19-3.953,4.249s2.415,3.488,4.846,3.2,4.2-2.19,3.953-4.254S192.575,462,190.144,462.286Zm.827,6.872a3.218,3.218,0,1,1,3.345-3.6,3.5,3.5,0,0,1-3.345,3.6Z" transform="translate(-144.539 -420.857)" fill="#3c354c"/>
          <path id="Path_61" data-name="Path 61" d="M180.759,463.47l5.283,1.128-.52,1.391-4.982-1.462Z" transform="translate(-143.953 -420.985)" fill="#3c354c"/>
          <path id="Path_62" data-name="Path 62" d="M213.093,459.522l-4.873,2.349.838,1.226,4.5-2.6Z" transform="translate(-146.837 -420.573)" fill="#3c354c"/>
          <path id="Path_63" data-name="Path 63" d="M195.471,464.286l3.707-.443-.192.92-3.181.214Z" transform="translate(-145.508 -421.024)" fill="#3c354c"/>
          <path id="Path_64" data-name="Path 64" d="M186.4,460.775a5.866,5.866,0,0,0,.547-2.393,5.126,5.126,0,0,1,.253-1.457,4.07,4.07,0,0,1,1.193-1.527,11.039,11.039,0,0,1,6.57-2.294,15.185,15.185,0,0,1,7.6,1.642,5.917,5.917,0,0,1,1.889,1.4c.767.936.931,2.146,1.7,3.072a4.476,4.476,0,0,0,4.194,1.314c.268-.953-.082-1.96.055-2.935a14.164,14.164,0,0,1,.87-2.431,5.973,5.973,0,0,0-2.94-6.9,11.324,11.324,0,0,1-2.617-1.643,12.336,12.336,0,0,1-1.286-2.244c-1.221-1.955-4.381-2.869-6.784-1.966-.755.285-1.423.718-2.19,1.024a18.048,18.048,0,0,1-4.61.887,14.149,14.149,0,0,0-4.467,1.172,5,5,0,0,0-2.8,3.022c-.148.591-.116,1.2-.263,1.791-.755,2.972-5.634,4.418-5.907,7.451a4.349,4.349,0,0,0,1.243,3.039c.514.607,1.747,2.234,2.617,2.47s1.534-.592,2.366-.876C184.949,461.985,185.743,461.9,186.4,460.775Z" transform="translate(-143.626 -418.755)" fill="#cbceda"/>
          <circle id="Ellipse_4" data-name="Ellipse 4" cx="45.854" cy="45.854" r="45.854" transform="translate(0 86.016) rotate(-69.709)" fill="none"/>
        </g>
      </g>
      <circle id="Ellipse_6" data-name="Ellipse 6" cx="45.854" cy="45.854" r="45.854" transform="translate(0 306.465) rotate(-69.709)" fill="none" stroke="#000" stroke-miterlimit="10" stroke-width="3"/>
      <path id="Path_65" data-name="Path 65" d="M828.095,298.925l-.707-.492C827.776,298.378,828.107,298.406,828.095,298.925Z" transform="translate(-211.341 -183.341)" fill="#333"/>
      <path id="Path_66" data-name="Path 66" d="M837.9,344.213l-.025,0Z" transform="translate(-212.433 -188.112)" fill="#faa6d6"/>
      <path id="Path_67" data-name="Path 67" d="M733.3,304.686l-.4.489C732.846,304.857,733,304.714,733.3,304.686Z" transform="translate(-201.497 -183.994)" fill="#333"/>
      <path id="Path_68" data-name="Path 68" d="M798.08,254.044l.369-.426C798.531,253.937,798.338,254.018,798.08,254.044Z" transform="translate(-208.288 -178.674)" fill="#333"/>
      <path id="Path_69" data-name="Path 69" d="M804.747,171.566c2.3.036,3.715,1.455,3.559,3.218a3.131,3.131,0,0,1-6.26-.114C802.1,172.649,803.226,171.642,804.747,171.566Z" transform="translate(-208.701 -170.126)" fill="#009afe"/>
      <path id="Path_70" data-name="Path 70" d="M815.274,188.62a31.559,31.559,0,0,1-4.853,16.1,60.35,60.35,0,0,1-6.166,8.5c-.257.3-.47.8-.974.634-.456-.146-.28-.641-.344-.988-.763-4.153-4.852-7.437-9.427-7.563-3.088-.086-6.193.249-9.261-.165-7.2-.972-12.089-4.987-14.169-11.895-2.027-6.734-.1-12.6,5.085-17.352,2.947-2.7,6.557-3.863,10.459-4.341,3.188-.391,6.374-.833,9.543-1.359a17.175,17.175,0,0,1,19.813,14.56A23.2,23.2,0,0,1,815.274,188.62Zm-16.887-5.242c0-3.114-1.466-4.924-3.908-5.486-2.5-.574-5.568.589-6.479,2.458a1.419,1.419,0,0,0,.388,1.9,1.4,1.4,0,0,0,1.935-.086c.283-.245.514-.554.81-.779,1.13-.864,3.194-.732,3.882.231.758,1.061.24,2.561-1.2,3.469-.211.133-.431.254-.65.374a5.1,5.1,0,0,0-2.7,5.223,1.4,1.4,0,0,0,1.476,1.513,1.355,1.355,0,0,0,1.489-1.5,3.026,3.026,0,0,1,1.944-3.025A5.255,5.255,0,0,0,798.387,183.377Zm-6.563,10.745a1.384,1.384,0,0,0-1.334,1.532,1.546,1.546,0,0,0,3.091.056C793.657,194.84,792.96,194.14,791.824,194.123Z" transform="translate(-205.288 -169.958)" fill="#040405"/>
      <circle id="Ellipse_7" data-name="Ellipse 7" cx="50.58" cy="50.58" r="50.58" transform="translate(531.421 305.395)" fill="none" stroke="#000" stroke-miterlimit="10" stroke-width="3"/>
      <circle id="Ellipse_8" data-name="Ellipse 8" cx="50.58" cy="50.58" r="50.58" transform="translate(521.64 27.99)" fill="none" stroke="#000" stroke-miterlimit="10" stroke-width="3"/>
      <path id="Path_71" data-name="Path 71" d="M843.753,631.32c1.308,0,2.617-.017,3.924.01.827.017,1.552.365,1.538,1.273-.015.941-.8,1.165-1.606,1.167-2.554.006-5.107,0-7.661,0-.822,0-1.6-.232-1.62-1.157-.023-1.032.795-1.293,1.689-1.3Q841.884,631.313,843.753,631.32Z" transform="translate(-212.481 -218.022)" fill="#f2f2f2"/>
      <path id="Path_72" data-name="Path 72" d="M832.241,633.8a10.685,10.685,0,0,1-1.293-.075c-.672-.119-1.246-.52-1.1-1.234.262-1.316,1.387-1.193,2.376-1.174.961.02,2.117-.218,2.379,1.147.137.717-.374,1.144-1.062,1.261A10.888,10.888,0,0,1,832.241,633.8Z" transform="translate(-211.595 -218.021)" fill="#f2f2f2"/>
      <path id="Path_73" data-name="Path 73" d="M741.606,631.7a.43.43,0,0,1-.26.236Z" transform="translate(-202.377 -218.062)" fill="#f2f2f2"/>
      <path id="Path_74" data-name="Path 74" d="M806.155,478.31q-.739,9.708-1.484,19.415c-.112,1.435-.86,2.39-2.376,2.343a2.093,2.093,0,0,1-2.155-2.5q.738-10.363,1.579-20.72a2.252,2.252,0,1,1,4.486.344c-.017.374,0,.749,0,1.123Z" transform="translate(-208.501 -201.702)" fill="#009afe"/>
      <path id="Path_75" data-name="Path 75" d="M804.264,508.308a2.294,2.294,0,0,1-2.34,2.543,2.151,2.151,0,0,1-2.3-2.2,2.327,2.327,0,0,1,4.64-.344Z" transform="translate(-208.448 -204.986)" fill="#009afe"/>
      <circle id="Ellipse_9" data-name="Ellipse 9" cx="48.281" cy="48.281" r="48.281" transform="translate(533.72 308.608)" fill="none"/>
      <path id="Path_76" data-name="Path 76" d="M814.347,493.593c-.088,7.15-2.289,13.229-5.448,19.023a59.654,59.654,0,0,1-3.446,5.529c-.392.563-.8.867-1.286.068-1.622-2.641-4.27-3.742-7.056-4.549-2.64-.765-5.443-.682-8.1-1.465a20.364,20.364,0,0,1-14.476-19.426,19.862,19.862,0,0,1,39.619-1.674C814.252,492.078,814.308,493.061,814.347,493.593Zm-17.082-8.908h.03c0-.245-.009-.492,0-.736a1.477,1.477,0,1,0-2.942-.226q-.551,6.793-1.036,13.59a1.372,1.372,0,0,0,1.414,1.642c.993.03,1.484-.6,1.558-1.537Q796.79,491.053,797.265,484.685Zm-1.206,17.521a1.526,1.526,0,0,0-3.043.226,1.41,1.41,0,0,0,1.508,1.442A1.506,1.506,0,0,0,796.059,502.206Z" transform="translate(-205.835 -201.553)" fill="#040405"/>
    </g>
  </g>
</svg>
