<?xml version="1.0" encoding="iso-8859-1"?>
<!-- Generator: Adobe Illustrator 19.0.0, SVG Export Plug-In . SVG Version: 6.00 Build 0)  -->
<svg version="1.1" id="Layer_1" xmlns="http://www.w3.org/2000/svg" xmlns:xlink="http://www.w3.org/1999/xlink" x="0px" y="0px"
	 viewBox="0 0 512 512" style="enable-background:new 0 0 512 512;" xml:space="preserve">
<path style="fill:#FFD07D;" d="M95.248,0h321.504C469.36,0,512,42.64,512,95.248v321.504C512,469.36,469.36,512,416.752,512H95.248
	C42.64,512,0,469.36,0,416.752V95.248C0,42.64,42.64,0,95.248,0z"/>
<path style="fill:#FFFFFF;" d="M80,176v160c0,32,32,32,32,32h190.656c0,0,32,0,32-32V176c0-32-32-32-32-32H112
	C112,144,80,144,80,176z M353.296,306.064L432,368V144l-78.704,62.504V306.064z"/>
<g>
</g>
<g>
</g>
<g>
</g>
<g>
</g>
<g>
</g>
<g>
</g>
<g>
</g>
<g>
</g>
<g>
</g>
<g>
</g>
<g>
</g>
<g>
</g>
<g>
</g>
<g>
</g>
<g>
</g>
</svg>
